<?xml version="1.0" encoding="utf-8"?>
<svg version="1.2" xmlns="http://www.w3.org/2000/svg" viewBox="0 0 1024 265" width="1024" height="265">
  <title>ggatari</title>
  <style>
		.s0 { fill: #fff } 
	</style>
  <path class="s0" d="m291.6 1.9q2.7-0.3 5.4-0.4 2.7-0.1 5.4-0.1 2.6 0 5.3 0.2 2.7 0.1 5.4 0.4 2.7 0.3 5.3 0.7 2.7 0.4 5.3 0.9 2.6 0.6 5.2 1.2 2.6 0.7 5.2 1.5c33.5 10.1 48 28.8 63.8 58.3-17.9 0-35.8 0.5-53.7 0.6-11.6-9.4-22.5-16.5-37.9-17.4-13.8-0.8-28 3.9-38.3 13.3q-0.9 0.8-1.8 1.7-0.9 0.9-1.8 1.9-0.8 0.9-1.6 1.9-0.8 1-1.5 2-0.8 1.1-1.5 2.1-0.7 1.1-1.3 2.2-0.7 1.1-1.2 2.2-0.6 1.1-1.2 2.3-0.5 1.1-1 2.3-0.4 1.2-0.8 2.4-0.4 1.2-0.8 2.4-0.3 1.2-0.6 2.5-0.3 1.2-0.6 2.5-0.2 1.2-0.4 2.5-0.1 1.2-0.2 2.5-0.1 1.3-0.2 2.5c-0.5 14 3.2 27.6 12.9 38 8.9 9.6 21.7 14.7 34.7 15.1 11.5 0.3 22.7-3.4 31-11.3 12.6-11.9 14.3-28.2 14.8-44.5 16.9 0.2 33.9-0.6 50.8 0.3l0.1 50.1c0 15.6 0.6 31.3-1.9 46.7q-1 6-2.8 11.7-1.7 5.8-4.2 11.4c-9.3 20.9-27.2 35.5-48.3 43.6-3.2 1.3-6.6 2.2-10 3-28.2 6.4-61.6 2.4-86.2-13.2-16.5-10.3-30.9-27-35.3-46.2 17.5-0.2 35.1 0 52.6 0 1 1.2 2 2.3 3 3.4 10.2 10.7 24.6 14.4 38.9 14.7 12.6 0.2 25.8-3.1 34.9-12.1 9.7-9.6 11.6-21.5 11.6-34.6-13.6 12.6-27.9 19.9-46.5 21.8-23.7 2.4-49.2-5.4-67.6-20.6-18.9-15.6-29.4-38.5-31.6-62.7-2.5-26.8 4.3-54.1 21.8-75 17.1-20.4 41-32.5 67.4-34.7z"/>
  <path id="Layer copy" class="s0" d="m89.7 1.7q2.7-0.2 5.4-0.3 2.7-0.1 5.4-0.1 2.6 0 5.3 0.1 2.7 0.2 5.4 0.5 2.6 0.2 5.3 0.6 2.7 0.4 5.3 1 2.6 0.5 5.2 1.2 2.6 0.6 5.2 1.4c33.5 10.1 48 28.9 63.8 58.4-17.9 0-35.8 0.4-53.7 0.6-11.6-9.4-22.5-16.5-37.9-17.4-13.8-0.8-28 3.9-38.3 13.2q-0.9 0.9-1.8 1.8-0.9 0.9-1.8 1.9-0.8 0.9-1.6 1.9-0.8 1-1.5 2-0.8 1-1.5 2.1-0.7 1.1-1.3 2.2-0.7 1.1-1.2 2.2-0.6 1.1-1.2 2.3-0.5 1.1-1 2.3-0.4 1.2-0.8 2.4-0.5 1.2-0.8 2.4-0.4 1.2-0.6 2.4-0.3 1.3-0.6 2.5-0.2 1.3-0.4 2.5-0.1 1.3-0.2 2.6-0.1 1.2-0.2 2.5c-0.5 14 3.2 27.6 12.9 37.9 8.9 9.6 21.7 14.8 34.7 15.2 11.5 0.3 22.7-3.4 31-11.3 12.6-11.9 14.3-28.2 14.8-44.6 16.9 0.3 33.9-0.5 50.8 0.3l0.1 50.2c0 15.5 0.6 31.2-1.9 46.7q-1 5.9-2.8 11.7-1.7 5.8-4.2 11.4c-9.3 20.9-27.2 35.5-48.3 43.6-3.2 1.2-6.6 2.2-10 2.9-28.2 6.4-61.6 2.5-86.2-13.1-16.5-10.4-30.9-27-35.3-46.2 17.5-0.3 35.1 0 52.6 0 1 1.2 2 2.3 3 3.4 10.2 10.7 24.6 14.4 38.9 14.6 12.6 0.3 25.8-3 34.9-12.1 9.7-9.6 11.6-21.4 11.6-34.5-13.6 12.6-27.9 19.8-46.5 21.8-23.7 2.4-49.2-5.4-67.6-20.6-18.9-15.6-29.4-38.5-31.6-62.7-2.5-26.9 4.3-54.1 21.8-75 17.1-20.5 41-32.5 67.4-34.8z"/>
  <path class="s0" d="M 764.5 51.2 C 766.833 50.867 769.167 50.7 771.5 50.7 C 773.833 50.7 776.167 50.867 778.5 51.2 C 798 53.6 811.6 63.9 823.3 79.1 C 823.5 79.035 823.3 55.465 823.4 55.4 L 869.2 55.4 C 869.5 55.295 869.83 225.413 869.6 225.4 C 869.879 225.739 823.667 226.2 823.4 226.2 C 823.53 226.205 823.7 203.165 823.3 203.3 L 819.6 208 C 808.7 219.4 796.7 227.4 780.8 229.4 C 759.5 232.1 740 226.3 723.2 213 C 703.6 197.6 691.6 176.4 688.8 151.6 C 686 127.3 692.2 102.2 707.6 83.1 C 721.8 65.5 742 53.7 764.5 51.2 Z M 783.4 184.6 C 784.133 184.533 784.833 184.467 785.5 184.4 C 786.233 184.333 786.967 184.233 787.7 184.1 C 788.367 183.967 789.067 183.833 789.8 183.7 C 790.467 183.567 791.133 183.4 791.8 183.2 C 792.533 183 793.233 182.8 793.9 182.6 C 794.567 182.333 795.233 182.067 795.9 181.8 C 796.567 181.6 797.233 181.333 797.9 181 C 798.567 180.733 799.233 180.433 799.9 180.1 C 800.5 179.767 801.1 179.433 801.7 179.1 C 802.367 178.767 803 178.4 803.6 178 C 804.2 177.667 804.8 177.267 805.4 176.8 C 806 176.4 806.567 176 807.1 175.6 C 807.7 175.133 808.267 174.667 808.8 174.2 C 809.333 173.733 809.867 173.267 810.4 172.8 C 810.867 172.267 811.367 171.767 811.9 171.3 C 812.367 170.767 812.833 170.233 813.3 169.7 C 813.767 169.167 814.233 168.6 814.7 168 C 815.167 167.467 815.6 166.9 816 166.3 C 816.4 165.7 816.8 165.1 817.2 164.5 C 817.6 163.9 817.967 163.3 818.3 162.7 C 818.633 162.1 818.967 161.467 819.3 160.8 C 819.633 160.2 819.933 159.567 820.2 158.9 C 820.533 158.233 820.833 157.567 821.1 156.9 C 821.367 156.233 821.6 155.567 821.8 154.9 C 822 154.233 822.2 153.533 822.4 152.8 C 822.6 152.133 822.8 151.467 823 150.8 C 823.133 150.067 823.267 149.333 823.4 148.6 C 823.533 147.933 823.633 147.233 823.7 146.5 C 823.767 145.833 823.833 145.133 823.9 144.4 C 823.967 143.667 824 142.967 824 142.3 C 824.067 141.567 824.067 140.833 824 140.1 C 824 139.367 823.967 138.667 823.9 138 C 823.9 137.267 823.833 136.533 823.7 135.8 C 823.633 135.133 823.533 134.433 823.4 133.7 C 823.267 132.967 823.133 132.267 823 131.6 C 822.867 130.933 822.7 130.233 822.5 129.5 C 822.3 128.833 822.1 128.167 821.9 127.5 C 821.633 126.767 821.367 126.067 821.1 125.4 C 820.9 124.733 820.633 124.1 820.3 123.5 C 820.033 122.833 819.733 122.167 819.4 121.5 C 819.067 120.9 818.733 120.267 818.4 119.6 C 818.067 119 817.7 118.4 817.3 117.8 C 816.9 117.2 816.5 116.6 816.1 116 C 815.7 115.4 815.3 114.833 814.9 114.3 C 814.433 113.7 813.967 113.133 813.5 112.6 C 813.033 112.067 812.567 111.533 812.1 111 C 811.567 110.467 811.033 109.967 810.5 109.5 C 810.033 109.033 809.533 108.567 809 108.1 C 808.4 107.633 807.833 107.167 807.3 106.7 C 806.767 106.233 806.2 105.8 805.6 105.4 C 805 105 804.4 104.6 803.8 104.2 C 803.2 103.8 802.6 103.433 802 103.1 C 801.333 102.767 800.7 102.433 800.1 102.1 C 799.433 101.767 798.767 101.467 798.1 101.2 C 797.433 100.933 796.767 100.667 796.1 100.4 C 795.433 100.133 794.767 99.867 794.1 99.6 C 793.433 99.4 792.767 99.2 792.1 99 C 791.367 98.8 790.667 98.633 790 98.5 C 789.267 98.367 788.567 98.233 787.9 98.1 C 787.167 97.967 786.467 97.867 785.8 97.8 C 785.067 97.667 784.333 97.567 783.6 97.5 C 782.933 97.5 782.233 97.467 781.5 97.4 C 780.767 97.4 780.033 97.4 779.3 97.4 C 778.633 97.467 777.933 97.5 777.2 97.5 C 776.467 97.567 775.767 97.667 775.1 97.8 C 774.367 97.867 773.667 97.967 773 98.1 C 772.267 98.167 771.567 98.3 770.9 98.5 C 770.167 98.633 769.467 98.8 768.8 99 C 768.133 99.2 767.433 99.4 766.7 99.6 C 766.033 99.867 765.367 100.1 764.7 100.3 C 764.033 100.567 763.4 100.867 762.8 101.2 C 762.133 101.467 761.467 101.767 760.8 102.1 C 760.2 102.367 759.567 102.7 758.9 103.1 C 758.3 103.433 757.7 103.8 757.1 104.2 C 756.5 104.533 755.9 104.933 755.3 105.4 C 754.7 105.8 754.133 106.2 753.6 106.6 C 753.067 107.067 752.5 107.533 751.9 108 C 751.367 108.467 750.867 108.933 750.4 109.4 C 749.867 109.933 749.333 110.433 748.8 110.9 C 748.333 111.433 747.867 111.967 747.4 112.5 C 746.933 113.033 746.467 113.6 746 114.2 C 745.6 114.733 745.2 115.3 744.8 115.9 C 744.333 116.5 743.933 117.1 743.6 117.7 C 743.2 118.3 742.833 118.9 742.5 119.5 C 742.1 120.1 741.767 120.733 741.5 121.4 C 741.167 122 740.833 122.633 740.5 123.3 C 740.233 123.967 739.967 124.633 739.7 125.3 C 739.433 125.967 739.2 126.633 739 127.3 C 738.8 127.967 738.6 128.633 738.4 129.3 C 738.2 130.033 738 130.733 737.8 131.4 C 737.667 132.133 737.533 132.833 737.4 133.5 C 737.267 134.233 737.167 134.933 737.1 135.6 C 737.033 136.333 736.967 137.033 736.9 137.7 C 736.833 138.433 736.8 139.167 736.8 139.9 C 736.8 140.633 736.8 141.333 736.8 142 C 736.8 142.733 736.833 143.467 736.9 144.2 C 736.967 144.867 737.033 145.567 737.1 146.3 C 737.167 147.033 737.267 147.733 737.4 148.4 C 737.533 149.133 737.667 149.833 737.8 150.5 C 737.933 151.167 738.1 151.867 738.3 152.6 C 738.5 153.267 738.7 153.933 738.9 154.6 C 739.167 155.267 739.4 155.933 739.6 156.6 C 739.867 157.267 740.167 157.933 740.5 158.6 C 740.767 159.267 741.067 159.933 741.4 160.6 C 741.667 161.2 742 161.8 742.4 162.4 C 742.733 163.067 743.1 163.7 743.5 164.3 C 743.833 164.9 744.2 165.5 744.6 166.1 C 745.067 166.633 745.5 167.2 745.9 167.8 C 746.367 168.333 746.833 168.867 747.3 169.4 C 747.767 170 748.233 170.533 748.7 171 C 749.167 171.533 749.667 172.067 750.2 172.6 C 750.733 173.067 751.267 173.533 751.8 174 C 752.333 174.467 752.867 174.933 753.4 175.4 C 754 175.8 754.567 176.2 755.1 176.6 C 755.7 177.067 756.3 177.467 756.9 177.8 C 757.5 178.2 758.1 178.567 758.7 178.9 C 759.367 179.3 760 179.667 760.6 180 C 761.267 180.267 761.933 180.567 762.6 180.9 C 763.2 181.167 763.833 181.433 764.5 181.7 C 765.167 181.967 765.833 182.2 766.5 182.4 C 767.233 182.667 767.933 182.9 768.6 183.1 C 769.267 183.3 769.967 183.467 770.7 183.6 C 771.367 183.733 772.033 183.867 772.7 184 C 773.433 184.133 774.167 184.233 774.9 184.3 C 775.567 184.433 776.267 184.533 777 184.6 C 777.733 184.6 778.433 184.633 779.1 184.7 C 779.833 184.7 780.567 184.7 781.3 184.7 C 781.967 184.7 782.667 184.667 783.4 184.6 Z"/>
  <path class="s0" d="m482.6 50.6q2.9-0.2 5.7 0c21 1.3 37.1 12.4 50.7 27.7 0.2-7.6 0-15.2 0.2-22.8q22.1 0.1 44.2 0c0.5 18.6 0.1 37.3 0.1 55.9q0.2 57.1-0.5 114.3-23.4-0.1-46.7 0.1-0.1-10.8 0-21.6c-1.9 2.4-3.9 4.7-5.9 7-9.6 10.1-21.8 16.4-35.7 18.1-20.8 2.4-40.6-2.6-56.9-15.8-19.7-15.7-31.1-38.4-33.6-63.3-2.5-24.3 4-49.9 19.6-68.9 14.9-18.2 35.6-28.5 58.8-30.7zm15 134.4q1 0 2.1-0.2 1.1-0.1 2.1-0.3 1.1-0.2 2.1-0.4 1.1-0.2 2.1-0.5 1-0.3 2.1-0.6 1-0.4 2-0.7 1-0.4 2-0.8 1-0.5 1.9-1 1-0.4 1.9-1 1-0.5 1.9-1.1 0.9-0.5 1.7-1.1 0.9-0.7 1.8-1.3 0.8-0.7 1.6-1.4 0.9-0.7 1.6-1.4 0.8-0.7 1.6-1.5 0.7-0.8 1.4-1.6 0.7-0.8 1.4-1.7 0.6-0.8 1.3-1.7 0.6-0.8 1.2-1.8 0.5-0.9 1.1-1.8 0.5-0.9 1-1.9 0.5-0.9 0.9-1.9 0.5-1 0.9-2 0.3-1 0.7-2 0.3-1 0.6-2.1 0.3-1 0.6-2 0.2-1.1 0.4-2.1 0.2-1.1 0.3-2.2 0.1-1 0.2-2.1 0.1-1.1 0.1-2.1 0.1-1.1 0.1-2.2-0.1-1.1-0.1-2.1-0.1-1.1-0.2-2.2-0.2-1-0.3-2.1-0.2-1.1-0.4-2.1-0.3-1-0.6-2.1-0.2-1-0.6-2-0.3-1.1-0.7-2.1-0.4-1-0.8-2-0.4-0.9-0.9-1.9-0.5-1-1-1.9-0.5-0.9-1.1-1.8-0.6-1-1.2-1.8-0.6-0.9-1.2-1.8-0.7-0.8-1.4-1.6-0.7-0.9-1.4-1.6-0.8-0.8-1.5-1.6-0.8-0.7-1.6-1.4-0.8-0.7-1.7-1.4-0.8-0.7-1.7-1.3-0.9-0.6-1.8-1.2-0.9-0.6-1.8-1.1-0.9-0.5-1.9-1-0.9-0.5-1.9-0.9-1-0.5-2-0.9-1-0.4-2-0.7-1-0.4-2.1-0.7-1-0.3-2-0.5-1.1-0.2-2.1-0.4-1.1-0.2-2.2-0.4-1-0.1-2.1-0.2-1.1-0.1-2.1-0.1-1.1 0-2.2 0-1.1 0-2.1 0.1-1.1 0-2.2 0.2-1 0.1-2.1 0.3-1.1 0.1-2.1 0.4-1.1 0.2-2.1 0.5-1 0.3-2.1 0.6-1 0.3-2 0.7-1 0.4-2 0.8-1 0.4-1.9 0.9-1 0.5-1.9 1-1 0.5-1.9 1.1-0.9 0.6-1.8 1.2-0.9 0.6-1.7 1.3-0.9 0.6-1.7 1.3-0.8 0.7-1.6 1.5-0.8 0.7-1.5 1.5-0.8 0.7-1.5 1.6-0.7 0.8-1.4 1.6-0.6 0.9-1.3 1.7-0.6 0.9-1.2 1.8-0.5 0.9-1.1 1.8-0.5 1-1 1.9-0.5 1-0.9 2-0.5 1-0.9 2-0.4 1-0.7 2-0.4 1-0.6 2-0.3 1.1-0.6 2.1-0.2 1.1-0.4 2.1-0.2 1.1-0.3 2.2-0.2 1-0.3 2.1-0.1 1.1-0.1 2.1 0 1.1 0 2.2 0 1.1 0.1 2.1 0.1 1.1 0.2 2.2 0.1 1.1 0.3 2.1 0.2 1.1 0.4 2.1 0.2 1.1 0.5 2.1 0.3 1.1 0.6 2.1 0.4 1 0.8 2 0.3 1 0.8 2 0.4 1 0.9 2 0.5 0.9 1 1.9 0.5 0.9 1.1 1.8 0.6 0.9 1.2 1.8 0.6 0.9 1.2 1.7 0.7 0.9 1.4 1.7 0.7 0.8 1.4 1.6 0.8 0.8 1.6 1.5 0.7 0.8 1.5 1.5 0.9 0.7 1.7 1.4 0.8 0.6 1.7 1.3 0.9 0.6 1.8 1.2 0.9 0.5 1.8 1.1 1 0.5 1.9 1 1 0.5 2 0.9 1 0.5 2 0.8 1 0.4 2 0.8 1 0.3 2 0.6 1.1 0.3 2.1 0.5 1.1 0.3 2.1 0.5 1.1 0.2 2.2 0.3 1 0.1 2.1 0.2 1.1 0.1 2.2 0.1 1 0.1 2.1 0 1.1 0 2.2-0.1z"/>
  <path class="s0" d="M 621.7 7.9 C 623.084 7.959 669.356 7.8 669.2 7.9 L 669.3 55.4 L 691.6 55.4 C 691.753 55.507 691.787 96.493 691.7 96.6 C 691.852 97 670.367 96.8 670.3 96.7 C 670.399 96.968 668.462 225.319 668.5 225.5 L 621.5 225.4 C 622 214.3 621.999 97.372 622 96.9 C 621.856 97.019 599.687 96.593 599.64 96.616 C 599.657 96.576 599.48 55.509 599.6 55.4 C 599.548 55.4 612.962 55.779 621.6 55.8 C 621.533 46.867 621.76 8.087 621.7 7.9 Z"/>
  <path class="s0" d="M 961.4 53.3 C 961.521 53.347 960.947 101.045 960.9 100.914 C 953.5 101.414 948.3 103 942.6 108.2 C 938.1 112.2 935.9 117.6 934.7 123.4 C 932.2 135.4 932.904 157.521 933.047 169.722 C 933.703 225.526 934.094 225.707 933.8 225.6 C 933.479 225.9 886.345 226.206 886.5 226 L 886.4 55.4 C 886.832 55.124 927.544 55.247 927.7 55.4 L 927.8 75.2 C 927.542 75.311 930.6 71 932.1 69 C 939.7 59 949.1 54.9 961.4 53.3 Z"/>
  <path class="s0" d="M 976.9 53.182 C 977.124 52.987 1021.84 53.485 1021.8 53.485 C 1021.87 53.613 1020.9 225.699 1020.9 225.699 C 1020.71 225.98 976.292 225.603 976.1 225.699 C 976.07 225.593 976.96 53.219 976.9 53.182 Z" style=""/>
  <path class="s0" d="M 994.062 0.7 C 994.462 0.567 994.862 0.467 995.262 0.4 C 995.662 0.333 996.062 0.3 996.462 0.3 C 996.795 0.233 997.162 0.167 997.562 0.1 C 997.962 0.1 998.362 0.1 998.762 0.1 C 999.162 0.1 999.562 0.1 999.962 0.1 C 1000.36 0.1 1000.76 0.1 1001.16 0.1 C 1001.56 0.167 1001.93 0.233 1002.26 0.3 C 1002.66 0.3 1003.06 0.333 1003.46 0.4 C 1003.86 0.467 1004.26 0.567 1004.66 0.7 C 1005.06 0.767 1005.43 0.833 1005.76 0.9 C 1006.16 1.033 1006.56 1.167 1006.96 1.3 C 1007.29 1.433 1007.66 1.567 1008.06 1.7 C 1008.39 1.833 1008.76 1.967 1009.16 2.1 C 1009.5 2.3 1009.83 2.467 1010.16 2.6 C 1010.56 2.8 1010.93 3 1011.26 3.2 C 1011.6 3.4 1011.93 3.6 1012.26 3.8 C 1012.6 4 1012.93 4.233 1013.26 4.5 C 1013.53 4.7 1013.83 4.933 1014.16 5.2 C 1014.5 5.4 1014.79 5.633 1015.06 5.9 C 1015.39 6.167 1015.7 6.433 1015.96 6.7 C 1016.23 6.967 1016.5 7.233 1016.76 7.5 C 1017.03 7.833 1017.29 8.133 1017.56 8.4 C 1017.83 8.733 1018.1 9.033 1018.36 9.3 C 1018.56 9.633 1018.79 9.967 1019.06 10.3 C 1019.26 10.633 1019.46 10.967 1019.66 11.3 C 1019.93 11.633 1020.16 11.967 1020.36 12.3 C 1020.5 12.633 1020.66 12.967 1020.86 13.3 C 1021.06 13.633 1021.23 14 1021.36 14.4 C 1021.56 14.733 1021.73 15.1 1021.86 15.5 C 1022 15.833 1022.13 16.2 1022.26 16.6 C 1022.39 16.933 1022.5 17.3 1022.56 17.7 C 1022.7 18.1 1022.79 18.5 1022.86 18.9 C 1022.93 19.233 1023 19.6 1023.06 20 C 1023.13 20.4 1023.2 20.8 1023.26 21.2 C 1023.33 21.6 1023.36 22 1023.36 22.4 C 1023.43 22.733 1023.46 23.1 1023.46 23.5 C 1023.46 23.9 1023.46 24.3 1023.46 24.7 C 1023.46 25.1 1023.43 25.5 1023.36 25.9 C 1023.36 26.3 1023.33 26.7 1023.26 27.1 C 1023.26 27.5 1023.23 27.867 1023.16 28.2 C 1023.1 28.6 1023 29 1022.86 29.4 C 1022.79 29.8 1022.7 30.2 1022.56 30.6 C 1022.5 30.933 1022.39 31.3 1022.26 31.7 C 1022.13 32.033 1022 32.4 1021.86 32.8 C 1021.73 33.133 1021.6 33.5 1021.46 33.9 C 1021.26 34.233 1021.1 34.6 1020.96 35 C 1020.76 35.333 1020.56 35.667 1020.36 36 C 1020.16 36.333 1019.96 36.667 1019.76 37 C 1019.56 37.333 1019.33 37.667 1019.06 38 C 1018.86 38.333 1018.63 38.667 1018.36 39 C 1018.16 39.267 1017.93 39.567 1017.66 39.9 C 1017.39 40.167 1017.13 40.433 1016.86 40.7 C 1016.6 41.033 1016.33 41.333 1016.06 41.6 C 1015.73 41.867 1015.43 42.133 1015.16 42.4 C 1014.89 42.667 1014.6 42.9 1014.26 43.1 C 1013.93 43.367 1013.6 43.6 1013.26 43.8 C 1013 44.067 1012.7 44.3 1012.36 44.5 C 1012.03 44.7 1011.7 44.9 1011.36 45.1 C 1010.96 45.3 1010.6 45.5 1010.26 45.7 C 1009.93 45.833 1009.56 46 1009.16 46.2 C 1008.83 46.333 1008.5 46.467 1008.16 46.6 C 1007.76 46.8 1007.36 46.933 1006.96 47 C 1006.63 47.133 1006.26 47.267 1005.86 47.4 C 1005.46 47.467 1005.1 47.567 1004.76 47.7 C 1004.36 47.767 1003.96 47.833 1003.56 47.9 C 1003.16 47.967 1002.76 48.033 1002.36 48.1 C 1001.96 48.167 1001.6 48.2 1001.26 48.2 C 1000.86 48.267 1000.46 48.3 1000.06 48.3 C 999.662 48.3 999.262 48.3 998.862 48.3 C 998.462 48.3 998.062 48.267 997.662 48.2 C 997.262 48.2 996.862 48.167 996.462 48.1 C 996.062 48.033 995.695 47.967 995.362 47.9 C 994.962 47.833 994.562 47.767 994.162 47.7 C 993.762 47.633 993.362 47.533 992.962 47.4 C 992.629 47.333 992.262 47.233 991.862 47.1 C 991.462 46.967 991.095 46.833 990.762 46.7 C 990.362 46.567 989.995 46.4 989.662 46.2 C 989.262 46.067 988.895 45.9 988.562 45.7 C 988.229 45.567 987.895 45.4 987.562 45.2 C 987.229 45 986.895 44.8 986.562 44.6 C 986.229 44.4 985.895 44.167 985.562 43.9 C 985.229 43.7 984.895 43.467 984.562 43.2 C 984.229 43 983.929 42.767 983.662 42.5 C 983.329 42.233 983.029 41.967 982.762 41.7 C 982.495 41.433 982.229 41.133 981.962 40.8 C 981.695 40.533 981.429 40.267 981.162 40 C 980.895 39.667 980.629 39.367 980.362 39.1 C 980.162 38.767 979.929 38.433 979.662 38.1 C 979.462 37.767 979.262 37.433 979.062 37.1 C 978.795 36.767 978.562 36.433 978.362 36.1 C 978.162 35.767 977.995 35.433 977.862 35.1 C 977.662 34.7 977.495 34.333 977.362 34 C 977.162 33.667 976.995 33.3 976.862 32.9 C 976.729 32.5 976.595 32.133 976.462 31.8 C 976.329 31.4 976.229 31 976.162 30.6 C 976.029 30.267 975.929 29.9 975.862 29.5 C 975.729 29.1 975.629 28.7 975.562 28.3 C 975.495 27.967 975.462 27.6 975.462 27.2 C 975.395 26.8 975.362 26.4 975.362 26 C 975.295 25.6 975.262 25.2 975.262 24.8 C 975.262 24.4 975.262 24 975.262 23.6 C 975.262 23.2 975.262 22.8 975.262 22.4 C 975.329 22 975.395 21.633 975.462 21.3 C 975.462 20.9 975.495 20.5 975.562 20.1 C 975.629 19.7 975.729 19.3 975.862 18.9 C 975.929 18.5 976.029 18.133 976.162 17.8 C 976.229 17.4 976.329 17 976.462 16.6 C 976.595 16.267 976.729 15.9 976.862 15.5 C 976.995 15.167 977.129 14.8 977.262 14.4 C 977.462 14.067 977.662 13.733 977.862 13.4 C 977.995 13 978.162 12.633 978.362 12.3 C 978.562 11.967 978.762 11.633 978.962 11.3 C 979.162 10.967 979.395 10.633 979.662 10.3 C 979.862 9.967 980.095 9.667 980.362 9.4 C 980.562 9.067 980.795 8.733 981.062 8.4 C 981.329 8.133 981.595 7.867 981.862 7.6 C 982.129 7.267 982.429 6.967 982.762 6.7 C 983.029 6.433 983.295 6.167 983.562 5.9 C 983.895 5.633 984.229 5.4 984.562 5.2 C 984.829 4.933 985.129 4.7 985.462 4.5 C 985.795 4.233 986.129 4 986.462 3.8 C 986.795 3.6 987.129 3.4 987.462 3.2 C 987.795 3 988.162 2.8 988.562 2.6 C 988.895 2.467 989.229 2.3 989.562 2.1 C 989.962 1.967 990.329 1.833 990.662 1.7 C 991.062 1.567 991.429 1.433 991.762 1.3 C 992.162 1.167 992.562 1.033 992.962 0.9 C 993.295 0.833 993.662 0.767 994.062 0.7 L 994.062 0.7 Z"/>
</svg>